<?xml version="1.0" encoding="UTF-8"?>
<svg width="252px" height="76px" viewBox="0 0 252 76" version="1.1" xmlns="http://www.w3.org/2000/svg" xmlns:xlink="http://www.w3.org/1999/xlink">
    <title>Group 13</title>
    <defs>
        <linearGradient x1="49.9984472%" y1="100.265508%" x2="49.9984472%" y2="-260.382794%" id="linearGradient-1">
            <stop stop-color="#1A1A1A" stop-opacity="0.1" offset="0%"></stop>
            <stop stop-color="#212121" stop-opacity="0.151" offset="12.3%"></stop>
            <stop stop-color="#353535" stop-opacity="0.227" offset="30.8%"></stop>
            <stop stop-color="#575757" stop-opacity="0.318" offset="53.2%"></stop>
            <stop stop-color="#858585" stop-opacity="0.421" offset="78.3%"></stop>
            <stop stop-color="#B3B3B3" stop-opacity="0.51" offset="100%"></stop>
        </linearGradient>
        <linearGradient x1="60.7408501%" y1="4.84%" x2="26.7288336%" y2="71.968%" id="linearGradient-2">
            <stop stop-color="#00A0FF" offset="0%"></stop>
            <stop stop-color="#00A1FF" offset="0.7%"></stop>
            <stop stop-color="#00BEFF" offset="26%"></stop>
            <stop stop-color="#00D2FF" offset="51.2%"></stop>
            <stop stop-color="#00DFFF" offset="76%"></stop>
            <stop stop-color="#00E3FF" offset="100%"></stop>
        </linearGradient>
        <linearGradient x1="107.724138%" y1="49.4235294%" x2="-130.669951%" y2="49.4235294%" id="linearGradient-3">
            <stop stop-color="#FFE000" offset="0%"></stop>
            <stop stop-color="#FFBD00" offset="40.9%"></stop>
            <stop stop-color="#FFA500" offset="77.5%"></stop>
            <stop stop-color="#FF9C00" offset="100%"></stop>
        </linearGradient>
        <linearGradient x1="86.3892216%" y1="30.3239157%" x2="-49.8862275%" y2="138.269667%" id="linearGradient-4">
            <stop stop-color="#FF3A44" offset="0%"></stop>
            <stop stop-color="#C31162" offset="100%"></stop>
        </linearGradient>
        <linearGradient x1="-18.5808383%" y1="-13.3093924%" x2="42.2754491%" y2="34.6720212%" id="linearGradient-5">
            <stop stop-color="#32A071" offset="0%"></stop>
            <stop stop-color="#2DA771" offset="6.9%"></stop>
            <stop stop-color="#15CF74" offset="47.6%"></stop>
            <stop stop-color="#06E775" offset="80.1%"></stop>
            <stop stop-color="#00F076" offset="100%"></stop>
        </linearGradient>
    </defs>
    <g id="Page-1" stroke="none" stroke-width="1" fill="none" fill-rule="evenodd">
        <g id="WaitList-page-2" transform="translate(-131.000000, -658.000000)">
            <g id="Group-13" transform="translate(131.000000, 658.000000)">
                <g id="download" opacity="0.5" transform="translate(0.000000, 41.000000)" fill-rule="nonzero">
                    <path d="M117,30.6920524 C117,31.569973 116.647958,32.411886 116.021416,33.0323456 C115.394874,33.6528051 114.545228,34.000915 113.659627,34 L4.34472969,34 C2.49975062,34.0019074 1.00240444,32.5210284 1,30.6920524 L1,4.31226426 C1.00240317,2.48259004 2.49904536,1.00047493 4.34472969,1 L113.658755,1 C114.544828,1 115.394598,1.34899723 116.021064,1.97019211 C116.647531,2.591387 117,3.43387659 117,4.31226426 L117,30.6920524 Z" id="Path" fill="#FFFFFF"></path>
                    <path d="M113.86511,35 L4.13576326,35 C1.85457297,34.9995215 0.0043404812,33.1509675 0,30.8679887 L0,4.13638751 C0.00337465324,1.85229917 1.85346672,0.00192785666 4.13576326,0 L113.864236,0 C116.146134,0.0028896814 117.995663,1.8526986 118,4.13638751 L118,30.8679887 C118.001748,33.1471155 116.143322,35 113.86511,35 L113.86511,35 Z" id="Path" fill="#A6A6A6"></path>
                    <path d="M117,30.6920524 C117,31.569973 116.647958,32.411886 116.021416,33.0323456 C115.394874,33.6528051 114.545228,34.000915 113.659627,34 L4.34472969,34 C2.49975062,34.0019074 1.00240444,32.5210284 1,30.6920524 L1,4.31226426 C1.00240317,2.48259004 2.49904536,1.00047493 4.34472969,1 L113.658755,1 C114.544828,1 115.394598,1.34899723 116.021064,1.97019211 C116.647531,2.591387 117,3.43387659 117,4.31226426 L117,30.6920524 Z" id="Path" fill="#000000"></path>
                    <path d="M26.0341243,17.6995565 C26.008975,14.9201896 28.322705,13.5680185 28.4285052,13.5050667 C27.1181432,11.6053009 25.0871254,11.3457323 24.3734073,11.3250358 C22.6675952,11.1465286 21.0129487,12.3400265 20.1439992,12.3400265 C19.2577053,12.3400265 17.9195924,11.3422829 16.4774137,11.3716029 C14.6215733,11.4000606 12.8854086,12.4685172 11.9332064,14.1276863 C9.96809695,17.5107009 11.4336905,22.4821716 13.3164145,25.2166961 C14.2582102,26.5567942 15.3587061,28.0512536 16.7991505,27.99865 C18.208375,27.9417347 18.7347746,27.1061137 20.4353835,27.1061137 C22.1203824,27.1061137 22.6146951,27.99865 24.0837575,27.9650182 C25.5961806,27.9417347 26.5483829,26.619746 27.4572243,25.2684373 C28.5455793,23.7343096 28.9826557,22.2217407 29,22.1441289 C28.9653114,22.1320559 26.0636096,21.0299675 26.0341243,17.6995565 Z M23.2590359,9.52616543 C24.0169819,8.58361253 24.5355766,7.30129216 24.3916188,6 C23.2945917,6.04829182 21.9226574,6.75455973 21.1326244,7.67641614 C20.433649,8.48875359 19.8092541,9.82022813 19.9705562,11.0723661 C21.2028688,11.1637756 22.4681357,10.4540583 23.2590359,9.52616543 L23.2590359,9.52616543 Z" id="Shape" fill="#FFFFFF"></path>
                    <path d="M113.858328,0 L55,0 L78.0537576,35 L113.858328,35 C116.143203,34.9980743 117.995656,33.1487676 118,30.865363 L118,4.13638751 C117.996139,1.85249894 116.143686,0.00240896305 113.858328,0 Z" id="Path" fill="url(#linearGradient-1)"></path>
                    <g id="Group" transform="translate(37.000000, 16.000000)" fill="#FFFFFF">
                        <path d="M9.88040858,11.6227651 L7.89247538,11.6227651 L6.80353266,8.27171875 L3.01849384,8.27171875 L1.98119712,11.6227651 L0.0457852752,11.6227651 L3.79668522,0.214291022 L6.11287687,0.214291022 L9.88040858,11.6227651 L9.88040858,11.6227651 Z M6.47527421,6.8658052 L5.49049884,3.88681154 C5.38633149,3.5824827 5.19025178,2.86580969 4.90313505,1.73764979 L4.86812081,1.73764979 C4.75257384,2.22286142 4.56787375,2.93953443 4.3148959,3.88681154 L3.3467523,6.8658052 L6.47527421,6.8658052 Z M19.5075725,7.40845354 C19.5075725,8.80750898 19.1197899,9.91338 18.3433492,10.7252094 C17.6483167,11.4478832 16.7843404,11.8087915 15.7540465,11.8087915 C14.6414692,11.8087915 13.8413939,11.4204507 13.3555714,10.6420547 L13.3555714,14.9583808 L11.4893127,14.9583808 L11.4893127,6.10026812 C11.4893127,5.22157215 11.4656781,4.32058731 11.4201596,3.39645633 L13.0614518,3.39645633 L13.1656192,4.70035542 L13.2006334,4.70035542 C13.8230115,3.71793047 14.7675205,3.22671799 16.0350358,3.22671799 C17.0259386,3.22671799 17.8531499,3.60991516 18.514919,4.37716676 C19.1758127,5.14613289 19.5075725,6.15599031 19.5075725,7.40845354 Z M17.6062996,7.47532016 C17.6062996,6.67463525 17.4224748,6.01454169 17.0530747,5.49418222 C16.6495356,4.95324841 16.1076903,4.68235287 15.4284141,4.68235287 C14.9679769,4.68235287 14.5495568,4.8332314 14.1757799,5.13070213 C13.8011276,5.43074466 13.5560279,5.82251447 13.4413563,6.3077261 C13.3901646,6.48918465 13.3610756,6.67593765 13.3546961,6.86409067 L13.3546961,8.23657091 C13.3546961,8.83408417 13.5420222,9.33901288 13.9166745,9.7522143 C14.2913269,10.1637012 14.7780247,10.3703019 15.3767681,10.3703019 C16.0796789,10.3703019 16.6267763,10.1036927 17.0180604,9.57476058 C17.4102199,9.04411394 17.6062996,8.34458622 17.6062996,7.47532016 L17.6062996,7.47532016 Z M29.1688754,7.40845354 C29.1688754,8.80750898 28.7810927,9.91338 28.0046521,10.7252094 C27.3087441,11.4478832 26.4456432,11.8087915 25.414474,11.8087915 C24.3018967,11.8087915 23.5018214,11.4204507 23.0159989,10.6420547 L23.0159989,14.9583808 L21.1497402,14.9583808 L21.1497402,6.10026812 C21.1497402,5.22157215 21.1261056,4.32058731 21.0805871,3.39645633 L22.7218793,3.39645633 L22.8260467,4.70035542 L22.8610609,4.70035542 C23.4825636,3.71793047 24.4270726,3.22671799 25.6954632,3.22671799 C26.6854907,3.22671799 27.5127021,3.60991516 28.1762218,4.37716676 C28.8362401,5.14613289 29.1688754,6.15599031 29.1688754,7.40845354 L29.1688754,7.40845354 Z M27.2667271,7.47532016 C27.2667271,6.67463525 27.082027,6.01454169 26.7126268,5.49418222 C26.3090877,4.95324841 25.7689931,4.68235287 25.089717,4.68235287 C24.6292798,4.68235287 24.2108597,4.8332314 23.835332,5.13070213 C23.4606797,5.43074466 23.2164554,5.82251447 23.1017838,6.3077261 C23.0448856,6.53404389 23.0142482,6.71835573 23.0142482,6.86409067 L23.0142482,8.23657091 C23.0142482,8.83408417 23.2024497,9.33901288 23.5753513,9.7522143 C23.9500036,10.1628439 24.4367015,10.3703019 25.0371956,10.3703019 C25.7409818,10.3703019 26.2880792,10.1036927 26.6784879,9.57476058 C27.0706473,9.04411394 27.2667271,8.34458622 27.2667271,7.47532016 L27.2667271,7.47532016 Z M39.9707669,8.42259728 C39.9707669,9.3938778 39.624126,10.1834183 38.9352209,10.7929332 C38.1771627,11.4581704 37.1188575,11.7916462 35.7620559,11.7916462 C34.5085462,11.7916462 33.5036377,11.5550413 32.7455795,11.0809741 L33.1771299,9.55761529 C33.9955877,10.0325397 34.8945782,10.2691447 35.8732261,10.2691447 C36.5770122,10.2691447 37.1241096,10.1131226 37.5145183,9.80365016 C37.9058024,9.49332047 38.1036328,9.07840451 38.1036328,8.56061684 C38.1036328,8.09683682 37.9399413,7.70849607 37.6186857,7.39216552 C37.2956794,7.07669223 36.7617123,6.78265056 36.0115323,6.51261228 C33.9719531,5.76764955 32.9512881,4.67806655 32.9512881,3.24472054 C32.9512881,2.30858786 33.3119348,1.54219352 34.0314773,0.942965729 C34.7510198,0.344595205 35.7051577,0.045409943 36.8921403,0.045409943 C37.9521963,0.045409943 38.8354304,0.226292723 39.5365904,0.587201019 L39.068275,2.07712648 C38.4082567,1.72736262 37.6633288,1.55248069 36.82999,1.55248069 C36.1717224,1.55248069 35.6552624,1.7110746 35.2858623,2.02654788 C34.9751109,2.30858786 34.8175469,2.65235086 34.8175469,3.0604087 C34.8175469,3.51047249 34.9969948,3.88423975 35.35414,4.17742416 C35.664016,4.44746244 36.2294959,4.74150411 37.0470783,5.0569774 C38.0502361,5.45303353 38.7872858,5.91424176 39.2591026,6.44403113 C39.7344208,6.97382051 39.9707669,7.63477133 39.9707669,8.42259728 Z M46.1569069,4.76807931 L44.0998206,4.76807931 L44.0998206,8.76207397 C44.0998206,9.77793223 44.4622179,10.2845755 45.1887633,10.2845755 C45.5222739,10.2845755 45.7988864,10.257143 46.0177253,10.1997063 L46.0693713,11.5876173 C45.7017219,11.7222078 45.2176501,11.7899317 44.6180313,11.7899317 C43.8809816,11.7899317 43.3049975,11.5696147 42.8892034,11.1289809 C42.4751601,10.688347 42.2668254,9.95024237 42.2668254,8.91123796 L42.2668254,4.76465025 L41.0413272,4.76465025 L41.0413272,3.39302727 L42.2668254,3.39302727 L42.2668254,1.88681379 L44.0998206,1.34502271 L44.0998206,3.39302727 L46.1569069,3.39302727 L46.1569069,4.76807931 L46.1569069,4.76807931 Z M55.4199228,7.44188685 C55.4199228,8.70635178 55.0505227,9.74449892 54.313473,10.5563283 C53.5422845,11.392161 52.5163674,11.8087915 51.2374724,11.8087915 C50.0032207,11.8087915 49.0219467,11.408449 48.2901492,10.6086214 C47.5583517,9.80707922 47.1924529,8.7972218 47.1924529,7.57904915 C47.1924529,6.30429704 47.5706067,5.26014905 48.3242881,4.4483197 C49.0797202,3.63563309 50.0968837,3.22928978 51.3757787,3.22928978 C52.6082798,3.22928978 53.5983073,3.6304895 54.3476119,4.43117441 C55.063653,5.20785592 55.4199228,6.21085523 55.4199228,7.44188685 Z M53.4853863,7.4838928 C53.4853863,6.73035743 53.3190687,6.0839801 52.9855581,5.54304629 C52.5942741,4.88981085 52.0340463,4.56319313 51.3083763,4.56319313 C50.5608224,4.56319313 49.9874643,4.88981085 49.5970555,5.54304629 C49.2626696,6.0839801 49.096352,6.74150187 49.096352,7.51818338 C49.096352,8.27257602 49.2626696,8.92066787 49.5970555,9.45988716 C50.0005946,10.1131226 50.5634484,10.4397403 51.2926199,10.4397403 C52.0060349,10.4397403 52.5653873,10.1062645 52.9698017,9.44359913 C53.3129412,8.88980636 53.4853863,8.23914271 53.4853863,7.4838928 Z M61.4887652,5.00382701 C61.2946607,4.96950819 61.0977672,4.95257869 60.900526,4.95324841 C60.2440091,4.95324841 59.7363027,5.19499696 59.3791575,5.68192312 C59.0692815,6.1105553 58.9134682,6.65234637 58.9134682,7.30643908 L58.9134682,11.6227651 L57.0472094,11.6227651 L57.0472094,5.98710923 C57.0488738,5.12355538 57.0307785,4.26007343 56.9929374,3.39731359 L58.6184732,3.39731359 L58.686751,4.97125096 L58.738397,4.97125096 C58.9362274,4.43031715 59.2461034,3.99396959 59.6715263,3.66735187 C60.0609314,3.38194946 60.5340707,3.22739568 61.0204498,3.22671799 C61.1928949,3.22671799 61.3487082,3.23871969 61.4870144,3.2601513 L61.4887652,5.00382701 L61.4887652,5.00382701 Z M69.8352835,7.12041271 C69.8400159,7.39825179 69.817149,7.67588317 69.7670057,7.94938735 L64.1682295,7.94938735 C64.189238,8.76207397 64.4605984,9.38444789 64.9805598,9.81308007 C65.4523766,10.19542 66.0624996,10.3874472 66.8118043,10.3874472 C67.6407663,10.3874472 68.3970738,10.2588575 69.0772253,9.99910644 L69.3695941,11.2670004 C68.574771,11.6064771 67.6363895,11.7753582 66.5535743,11.7753582 C65.2510447,11.7753582 64.2286291,11.3998764 63.4845766,10.6506274 C62.7422748,9.90052104 62.3702485,8.89237815 62.3702485,7.62962774 C62.3702485,6.39002348 62.7160141,5.35701992 63.4084206,4.53318887 C64.1332153,3.65363564 65.1127385,3.21385902 66.3452396,3.21385902 C67.5558568,3.21385902 68.4723544,3.65363564 69.0947324,4.53318887 C69.5875577,5.2301448 69.8352835,6.09426727 69.8352835,7.12041271 L69.8352835,7.12041271 Z M68.055685,6.64634552 C68.0688153,6.10369718 67.9462655,5.63648811 67.6932876,5.24128923 C67.3702813,4.7320742 66.8730792,4.47832395 66.2069333,4.47832395 C65.5968103,4.47832395 65.0996082,4.72607335 64.7214544,5.22328668 C64.4107031,5.61848555 64.226003,6.09341001 64.1691049,6.64463099 L68.055685,6.64634552 Z" id="Shape"></path>
                    </g>
                    <g id="Group" transform="translate(38.000000, 5.000000)" fill="#FFFFFF">
                        <path d="M1.36144343,6.48879261 C0.845086303,6.48879261 0.398389497,6.46172211 0.0265775351,6.41598229 L0.0265775351,0.410064378 C0.546599311,0.323947625 1.07210081,0.281501454 1.59828852,0.283068836 C3.72728207,0.283068836 4.70775108,1.40607221 4.70775108,3.23659833 C4.70775108,5.3480976 3.54964825,6.48879261 1.36144343,6.48879261 Z M1.67317336,1.0532222 C1.38582454,1.0532222 1.14114267,1.07189152 0.938256982,1.11669787 L0.938256982,5.6822783 C1.04797199,5.70094761 1.25869446,5.7093488 1.55475082,5.7093488 C2.94969874,5.7093488 3.7438264,4.85802814 3.7438264,3.26366883 C3.7438264,1.84200067 3.02545434,1.0532222 1.67317336,1.0532222 L1.67317336,1.0532222 Z M7.7632269,6.53453243 C6.56332788,6.53453243 5.78574455,5.57399629 5.78574455,4.26994479 C5.78574455,2.91081882 6.5798722,1.94188149 7.83114571,1.94188149 C9.01362966,1.94188149 9.80862806,2.85667781 9.80862806,4.19806794 C9.80862806,5.57399629 8.98924854,6.53453243 7.7632269,6.53453243 Z M7.79805706,2.65691617 C7.13889628,2.65691617 6.71658058,3.31780984 6.71658058,4.24194082 C6.71658058,5.14833595 7.14760382,5.80922963 7.78934952,5.80922963 C8.43109522,5.80922963 8.86211846,5.10259614 8.86211846,4.22327151 C8.86211846,3.3271445 8.43980276,2.65691617 7.79805706,2.65691617 Z M16.6510131,2.03242766 L15.3666509,6.4346516 L14.5298563,6.4346516 L13.9978256,4.52291398 C13.8655396,4.05529012 13.7553938,3.58079498 13.6678098,3.10124581 L13.6503947,3.10124581 C13.5833467,3.58104715 13.4562166,4.06178195 13.3212497,4.52291398 L12.7552596,6.4346516 L11.9097575,6.4346516 L10.7011509,2.03242766 L11.638953,2.03242766 L12.1039356,4.12525762 C12.2136506,4.62372827 12.3059506,5.09419495 12.3825769,5.53852459 L12.399992,5.53852459 C12.4670401,5.16793873 12.5767551,4.70493978 12.7378445,4.13459227 L13.3212497,2.03336112 L14.0648737,2.03336112 L14.623027,4.08978592 C14.7579938,4.58825657 14.8677089,5.07739257 14.9530427,5.53945806 L14.9774239,5.53945806 C15.0366351,5.08672722 15.1298058,4.60599242 15.2560651,4.08978592 L15.7550072,2.03336112 L16.6510131,2.03242766 L16.6510131,2.03242766 Z M21.3792073,6.4346516 L20.4666571,6.4346516 L20.4666571,3.90682666 C20.4666571,3.12831631 20.1880158,2.73812768 19.6385701,2.73812768 C19.0978318,2.73812768 18.7260199,3.23659833 18.7260199,3.81628049 L18.7260199,6.4346516 L17.8134697,6.4346516 L17.8134697,3.29073934 C17.8134697,2.90148416 17.8047621,2.48422502 17.7795103,2.03149419 L18.5823455,2.03149419 L18.6250124,2.71105717 L18.6502643,2.71105717 C18.8958169,2.24059049 19.3938882,1.94188149 19.9520415,1.94188149 C20.814088,1.94188149 21.3800781,2.64851498 21.3800781,3.79854464 L21.3792073,6.4346516 L21.3792073,6.4346516 Z M23.8956864,6.4346516 L22.9822655,6.4346516 L22.9822655,0.0124080169 L23.8956864,0.0124080169 L23.8956864,6.4346516 Z M27.2228375,6.53453243 C26.0238092,6.53453243 25.2453551,5.57399629 25.2453551,4.26994479 C25.2453551,2.91081882 26.0394828,1.94188149 27.2898855,1.94188149 C28.4732402,1.94188149 29.2673686,2.85667781 29.2673686,4.19806794 C29.2682386,5.57399629 28.4479884,6.53453243 27.2228375,6.53453243 Z M27.2567969,2.65691617 C26.5976361,2.65691617 26.1753204,3.31780984 26.1753204,4.24194082 C26.1753204,5.14833595 26.6072144,5.80922963 27.2472186,5.80922963 C27.889835,5.80922963 28.3199889,5.10259614 28.3199889,4.22327151 C28.3208583,3.3271445 27.8994133,2.65691617 27.2567969,2.65691617 L27.2567969,2.65691617 Z M32.8653235,6.4346516 L32.7991461,5.92777976 L32.774765,5.92777976 C32.4961238,6.33570425 32.0894816,6.53453243 31.5739953,6.53453243 C30.8382081,6.53453243 30.3157557,5.98192077 30.3157557,5.23888212 C30.3157557,4.15232812 31.1943465,3.59038181 32.7155538,3.59038181 L32.7155538,3.50917029 C32.7155538,2.92948813 32.4290757,2.63918032 31.8630856,2.63918032 C31.458185,2.63918032 31.1029173,2.7483958 30.7903166,2.96589329 L30.604846,2.32273547 C30.9844948,2.06883282 31.458185,1.94188149 32.0145968,1.94188149 C33.0873657,1.94188149 33.6289747,2.54863415 33.6289747,3.76307295 L33.6289747,5.38450276 C33.6289747,5.8288324 33.6472606,6.17328122 33.688186,6.43558507 L32.8653235,6.4346516 L32.8653235,6.4346516 Z M32.7399349,4.24194082 C31.7263772,4.24194082 31.2178569,4.50517813 31.2178569,5.12966664 C31.2178569,5.59173213 31.4799538,5.81763082 31.843929,5.81763082 C32.3080409,5.81763082 32.7399349,5.4377103 32.7399349,4.9215038 L32.7399349,4.24194082 L32.7399349,4.24194082 Z M38.0602419,6.4346516 L38.0175749,5.72801812 L37.9923231,5.72801812 C37.7302261,6.26196046 37.2896246,6.53453243 36.6740015,6.53453243 C35.6839542,6.53453243 34.9507793,5.60106679 34.9507793,4.28768064 C34.9507793,2.91081882 35.7109476,1.94094802 36.7488863,1.94094802 C37.2983321,1.94094802 37.6875592,2.1397762 37.9069892,2.5392995 L37.925275,2.5392995 L37.925275,0.0124080169 L38.8386959,0.0124080169 L38.8386959,5.24821678 C38.8386959,5.67387711 38.8482742,6.07246694 38.8726554,6.4346516 L38.0602419,6.4346516 Z M37.925275,3.84428446 C37.925275,3.22819714 37.5447555,2.70265598 36.9639626,2.70265598 C36.2873867,2.70265598 35.8737786,3.34581381 35.8737786,4.25127548 C35.8737786,5.1390013 36.3030603,5.74668743 36.9456767,5.74668743 C37.5195036,5.74668743 37.925275,5.21181162 37.925275,4.57798845 L37.925275,3.84428446 Z M44.6300809,6.53453243 C43.4310526,6.53453243 42.6534693,5.57399629 42.6534693,4.26994479 C42.6534693,2.91081882 43.4475969,1.94188149 44.6979997,1.94188149 C45.8813544,1.94188149 46.6754827,2.85667781 46.6754827,4.19806794 C46.6763528,5.57399629 45.8569733,6.53453243 44.6300809,6.53453243 Z M44.6640403,2.65691617 C44.0057502,2.65691617 43.5834345,3.31780984 43.5834345,4.24194082 C43.5834345,5.14833595 44.0144578,5.80922963 44.6553327,5.80922963 C45.2979492,5.80922963 45.728107,5.10259614 45.728107,4.22327151 C45.7298432,3.3271445 45.3075275,2.65691617 44.6640403,2.65691617 Z M51.5830516,6.4346516 L50.6696307,6.4346516 L50.6696307,3.90682666 C50.6696307,3.12831631 50.3909894,2.73812768 49.8415436,2.73812768 C49.3008054,2.73812768 48.9298642,3.23659833 48.9298642,3.81628049 L48.9298642,6.4346516 L48.0164432,6.4346516 L48.0164432,3.29073934 C48.0164432,2.90148416 48.0077357,2.48422502 47.9824838,2.03149419 L48.785319,2.03149419 L48.8279859,2.71105717 L48.8532378,2.71105717 C49.0979197,2.24059049 49.5968617,1.94094802 50.1541443,1.94094802 C51.0161908,1.94094802 51.5830516,2.64758151 51.5830516,3.79761118 L51.5830516,6.4346516 Z M57.7227381,2.76613165 L56.7187588,2.76613165 L56.7187588,4.90376796 C56.7187588,5.44797842 56.8946511,5.71961692 57.2499187,5.71961692 C57.4110082,5.71961692 57.5459751,5.70094761 57.6548193,5.67387711 L57.6800712,6.41691576 C57.5033081,6.48972608 57.266463,6.52613124 56.9721482,6.52613124 C56.2529054,6.52613124 55.8227529,6.1004709 55.8227529,4.98591293 L55.8227529,2.76613165 L55.2236741,2.76613165 L55.2236741,2.03242766 L55.8227529,2.03242766 L55.8227529,1.22591335 L56.7187588,0.935605532 L56.7187588,2.03149419 L57.7227381,2.03149419 L57.7227381,2.76613165 L57.7227381,2.76613165 Z M62.5536814,6.4346516 L61.6420019,6.4346516 L61.6420019,3.92549597 C61.6420019,3.13765097 61.3642314,2.73906114 60.8139149,2.73906114 C60.3410954,2.73906114 59.9004939,3.08350996 59.9004939,3.7808088 L59.9004939,6.4346516 L58.9888145,6.4346516 L58.9888145,0.0124080169 L59.9004939,0.0124080169 L59.9004939,2.65691617 L59.9187797,2.65691617 C60.2061286,2.17711483 60.622349,1.94094802 61.1535089,1.94094802 C62.0225214,1.94094802 62.5536814,2.66531736 62.5536814,3.81628049 L62.5536814,6.4346516 L62.5536814,6.4346516 Z M67.5030471,4.46877297 L64.7645258,4.46877297 C64.7819409,5.30235778 65.2965565,5.77282447 66.0584663,5.77282447 C66.4633669,5.77282447 66.8360496,5.70001415 67.1651946,5.56466163 L67.3071275,6.24422461 C66.9187712,6.42531695 66.4616254,6.51586311 65.9295947,6.51586311 C64.6452325,6.51586311 63.8850642,5.64587314 63.8850642,4.29701529 C63.8850642,2.94722398 64.6635183,1.93254683 65.8268457,1.93254683 C66.8761043,1.93254683 67.5343943,2.76613165 67.5343943,4.02537679 C67.5402951,4.17398362 67.5297729,4.32281698 67.5030471,4.46877297 L67.5030471,4.46877297 Z M66.6662525,3.77147414 C66.6662525,3.09191115 66.3466858,2.61210982 65.7632806,2.61210982 C65.2390867,2.61210982 64.8246078,3.10124581 64.7653965,3.77147414 L66.6662525,3.77147414 L66.6662525,3.77147414 Z" id="Shape"></path>
                    </g>
                </g>
                <g id="Group-11" transform="translate(2.000000, 0.000000)">
                    <text id="Coming-Soon" opacity="0.5" font-family="SFProRounded-Regular, SF Pro Rounded" font-size="20" font-weight="normal" line-spacing="30" fill="#000000">
                        <tspan x="66.625" y="19">Coming Soon</tspan>
                    </text>
                    <line x1="61.2453551" y1="15.5" x2="0" y2="15.5" id="Line-Copy-3" stroke="#979797" stroke-width="0.5" opacity="0.349999994" stroke-linecap="square"></line>
                    <line x1="249.245355" y1="15.5" x2="188" y2="15.5" id="Line-Copy-5" stroke="#979797" stroke-width="0.5" opacity="0.349999994" stroke-linecap="square"></line>
                </g>
                <g id="google-2" opacity="0.5" transform="translate(134.000000, 41.000000)" fill-rule="nonzero">
                    <path d="M113.62963,35 L4.37037037,35 C1.92296296,35 0,33.075 0,30.625 L0,4.375 C0,1.925 1.92296296,0 4.37037037,0 L113.62963,0 C116.077037,0 118,1.925 118,4.375 L118,30.625 C118,33.075 116.077037,35 113.62963,35 Z" id="Path" fill="#000000"></path>
                    <path d="M113.62963,0.7 C115.64,0.7 117.300741,2.3625 117.300741,4.375 L117.300741,30.625 C117.300741,32.6375 115.64,34.3 113.62963,34.3 L4.37037037,34.3 C2.36,34.3 0.699259259,32.6375 0.699259259,30.625 L0.699259259,4.375 C0.699259259,2.3625 2.36,0.7 4.37037037,0.7 L113.62963,0.7 M113.62963,0 L4.37037037,0 C1.92296296,0 0,2.0125 0,4.375 L0,30.625 C0,33.075 1.92296296,35 4.37037037,35 L113.62963,35 C116.077037,35 118,33.075 118,30.625 L118,4.375 C118,2.0125 116.077037,0 113.62963,0 Z" id="Shape" fill="#A6A6A6"></path>
                    <path d="M41.257732,9.19354839 C41.257732,9.96774194 41.0824742,10.6451613 40.6443299,11.1290323 C40.1185567,11.7096774 39.5051546,12 38.7164948,12 C37.9278351,12 37.314433,11.7096774 36.7886598,11.1290323 C36.2628866,10.5483871 36,9.87096774 36,9 C36,8.12903226 36.2628866,7.4516129 36.7886598,6.87096774 C37.314433,6.29032258 37.9278351,6 38.7164948,6 C39.0670103,6 39.4175258,6.09677419 39.7680412,6.29032258 C40.1185567,6.48387097 40.3814433,6.67741935 40.556701,6.96774194 L40.1185567,7.4516129 C39.7680412,6.96774194 39.3298969,6.77419355 38.7164948,6.77419355 C38.1907216,6.77419355 37.6649485,6.96774194 37.314433,7.4516129 C36.8762887,7.83870968 36.7010309,8.41935484 36.7010309,9.09677419 C36.7010309,9.77419355 36.8762887,10.3548387 37.314433,10.7419355 C37.7525773,11.1290323 38.1907216,11.4193548 38.7164948,11.4193548 C39.3298969,11.4193548 39.7680412,11.2258065 40.2061856,10.7419355 C40.4690722,10.4516129 40.6443299,10.0645161 40.6443299,9.58064516 L38.7164948,9.58064516 L38.7164948,8.80645161 L41.257732,8.80645161 L41.257732,9.19354839 L41.257732,9.19354839 Z M45.2886598,6.77419355 L42.9226804,6.77419355 L42.9226804,8.61290323 L45.1134021,8.61290323 L45.1134021,9.29032258 L42.9226804,9.29032258 L42.9226804,11.1290323 L45.2886598,11.1290323 L45.2886598,11.9032258 L42.2216495,11.9032258 L42.2216495,6.09677419 L45.2886598,6.09677419 L45.2886598,6.77419355 Z M48.1804124,11.9032258 L47.4793814,11.9032258 L47.4793814,6.77419355 L45.9896907,6.77419355 L45.9896907,6.09677419 L49.6701031,6.09677419 L49.6701031,6.77419355 L48.1804124,6.77419355 L48.1804124,11.9032258 Z M52.2113402,11.9032258 L52.2113402,6.09677419 L52.9123711,6.09677419 L52.9123711,11.9032258 L52.2113402,11.9032258 Z M55.8917526,11.9032258 L55.1907216,11.9032258 L55.1907216,6.77419355 L53.7010309,6.77419355 L53.7010309,6.09677419 L57.2938144,6.09677419 L57.2938144,6.77419355 L55.8041237,6.77419355 L55.8041237,11.9032258 L55.8917526,11.9032258 Z M64.2164948,11.1290323 C63.6907216,11.7096774 63.0773196,12 62.2886598,12 C61.5,12 60.8865979,11.7096774 60.3608247,11.1290323 C59.8350515,10.5483871 59.5721649,9.87096774 59.5721649,9 C59.5721649,8.12903226 59.8350515,7.4516129 60.3608247,6.87096774 C60.8865979,6.29032258 61.5,6 62.2886598,6 C63.0773196,6 63.6907216,6.29032258 64.2164948,6.87096774 C64.742268,7.4516129 65.0051546,8.12903226 65.0051546,9 C65.0051546,9.87096774 64.742268,10.5483871 64.2164948,11.1290323 Z M60.8865979,10.6451613 C61.2371134,11.0322581 61.7628866,11.3225806 62.2886598,11.3225806 C62.814433,11.3225806 63.3402062,11.1290323 63.6907216,10.6451613 C64.0412371,10.2580645 64.3041237,9.67741935 64.3041237,9 C64.3041237,8.32258065 64.128866,7.74193548 63.6907216,7.35483871 C63.3402062,6.96774194 62.814433,6.67741935 62.2886598,6.67741935 C61.7628866,6.67741935 61.2371134,6.87096774 60.8865979,7.35483871 C60.5360825,7.74193548 60.2731959,8.32258065 60.2731959,9 C60.2731959,9.67741935 60.4484536,10.2580645 60.8865979,10.6451613 Z M65.9690722,11.9032258 L65.9690722,6.09677419 L66.757732,6.09677419 L69.2989691,10.6451613 L69.2989691,6.09677419 L70,6.09677419 L70,11.9032258 L69.2989691,11.9032258 L66.5824742,7.16129032 L66.5824742,11.9032258 L65.9690722,11.9032258 L65.9690722,11.9032258 Z" id="Shape" stroke="#FFFFFF" stroke-width="0.555555556" fill="#FFFFFF"></path>
                    <path d="M59.6170213,18.1715976 C57.5177305,18.1715976 55.855792,19.7692308 55.855792,21.9881657 C55.855792,24.1183432 57.5177305,25.8047337 59.6170213,25.8047337 C61.7163121,25.8047337 63.3782506,24.2071006 63.3782506,21.9881657 C63.3782506,19.6804734 61.7163121,18.1715976 59.6170213,18.1715976 Z M59.6170213,24.2071006 C58.4799054,24.2071006 57.5177305,23.2307692 57.5177305,21.8994083 C57.5177305,20.5680473 58.4799054,19.591716 59.6170213,19.591716 C60.7541371,19.591716 61.7163121,20.4792899 61.7163121,21.8994083 C61.7163121,23.2307692 60.7541371,24.2071006 59.6170213,24.2071006 Z M51.4822695,18.1715976 C49.3829787,18.1715976 47.7210402,19.7692308 47.7210402,21.9881657 C47.7210402,24.1183432 49.3829787,25.8047337 51.4822695,25.8047337 C53.5815603,25.8047337 55.2434988,24.2071006 55.2434988,21.9881657 C55.2434988,19.6804734 53.5815603,18.1715976 51.4822695,18.1715976 Z M51.4822695,24.2071006 C50.3451537,24.2071006 49.3829787,23.2307692 49.3829787,21.8994083 C49.3829787,20.5680473 50.3451537,19.591716 51.4822695,19.591716 C52.6193853,19.591716 53.5815603,20.4792899 53.5815603,21.8994083 C53.5815603,23.2307692 52.6193853,24.2071006 51.4822695,24.2071006 Z M41.7730496,19.3254438 L41.7730496,20.9230769 L45.534279,20.9230769 C45.4468085,21.8106509 45.0969267,22.5207101 44.6595745,22.964497 C44.1347518,23.4970414 43.2600473,24.1183432 41.7730496,24.1183432 C39.4113475,24.1183432 37.6619385,22.2544379 37.6619385,19.8579882 C37.6619385,17.4615385 39.498818,15.5976331 41.7730496,15.5976331 C42.9976359,15.5976331 43.9598109,16.1301775 44.6595745,16.7514793 L45.7966903,15.5976331 C44.8345154,14.7100592 43.6099291,14 41.8605201,14 C38.7115839,14 36,16.6627219 36,19.8579882 C36,23.0532544 38.7115839,25.7159763 41.8605201,25.7159763 C43.6099291,25.7159763 44.8345154,25.183432 45.8841608,24.0295858 C46.9338061,22.964497 47.2836879,21.4556213 47.2836879,20.3017751 C47.2836879,19.9467456 47.2836879,19.591716 47.1962175,19.3254438 L41.7730496,19.3254438 L41.7730496,19.3254438 Z M81.4846336,20.5680473 C81.1347518,19.6804734 80.2600473,18.1715976 78.3356974,18.1715976 C76.4113475,18.1715976 74.8368794,19.6804734 74.8368794,21.9881657 C74.8368794,24.1183432 76.4113475,25.8047337 78.5106383,25.8047337 C80.1725768,25.8047337 81.2222222,24.739645 81.572104,24.1183432 L80.3475177,23.2307692 C79.9101655,23.852071 79.3853428,24.295858 78.5106383,24.295858 C77.6359338,24.295858 77.1111111,23.9408284 76.6737589,23.1420118 L81.6595745,21.0118343 L81.4846336,20.5680473 L81.4846336,20.5680473 Z M76.4113475,21.8106509 C76.4113475,20.3905325 77.5484634,19.591716 78.3356974,19.591716 C78.9479905,19.591716 79.5602837,19.9467456 79.7352246,20.3905325 L76.4113475,21.8106509 Z M72.3002364,25.4497041 L73.9621749,25.4497041 L73.9621749,14.3550296 L72.3002364,14.3550296 L72.3002364,25.4497041 Z M69.6761229,18.9704142 C69.2387707,18.5266272 68.5390071,18.0828402 67.6643026,18.0828402 C65.8274232,18.0828402 64.0780142,19.7692308 64.0780142,21.8994083 C64.0780142,24.0295858 65.7399527,25.6272189 67.6643026,25.6272189 C68.5390071,25.6272189 69.2387707,25.183432 69.5886525,24.739645 L69.6761229,24.739645 L69.6761229,25.2721893 C69.6761229,26.6923077 68.8888889,27.4911243 67.6643026,27.4911243 C66.7021277,27.4911243 66.0023641,26.7810651 65.8274232,26.1597633 L64.427896,26.7810651 C64.8652482,27.7573964 65.9148936,29 67.751773,29 C69.6761229,29 71.250591,27.8461538 71.250591,25.0946746 L71.250591,18.3491124 L69.6761229,18.3491124 L69.6761229,18.9704142 L69.6761229,18.9704142 Z M67.751773,24.2071006 C66.6146572,24.2071006 65.6524823,23.2307692 65.6524823,21.8994083 C65.6524823,20.5680473 66.6146572,19.591716 67.751773,19.591716 C68.8888889,19.591716 69.7635934,20.5680473 69.7635934,21.8994083 C69.7635934,23.2307692 68.8888889,24.2071006 67.751773,24.2071006 Z M89.0945626,14.3550296 L85.1583924,14.3550296 L85.1583924,25.4497041 L86.820331,25.4497041 L86.820331,21.2781065 L89.0945626,21.2781065 C90.9314421,21.2781065 92.6808511,19.9467456 92.6808511,17.816568 C92.6808511,15.6863905 90.9314421,14.3550296 89.0945626,14.3550296 L89.0945626,14.3550296 Z M89.1820331,19.6804734 L86.820331,19.6804734 L86.820331,15.8639053 L89.1820331,15.8639053 C90.4066194,15.8639053 91.106383,16.9289941 91.106383,17.7278107 C91.0189125,18.704142 90.3191489,19.6804734 89.1820331,19.6804734 Z M99.2411348,18.0828402 C98.0165485,18.0828402 96.7919622,18.6153846 96.3546099,19.7692308 L97.8416076,20.3905325 C98.1914894,19.7692308 98.7163121,19.591716 99.3286052,19.591716 C100.20331,19.591716 100.990544,20.1242604 101.078014,21.0118343 L101.078014,21.1005917 C100.815603,20.9230769 100.115839,20.6568047 99.4160757,20.6568047 C97.8416076,20.6568047 96.2671395,21.5443787 96.2671395,23.1420118 C96.2671395,24.6508876 97.5791962,25.6272189 98.9787234,25.6272189 C100.115839,25.6272189 100.640662,25.0946746 101.078014,24.5621302 L101.165485,24.5621302 L101.165485,25.4497041 L102.739953,25.4497041 L102.739953,21.1893491 C102.565012,19.2366864 101.078014,18.0828402 99.2411348,18.0828402 L99.2411348,18.0828402 Z M99.0661939,24.2071006 C98.5413712,24.2071006 97.7541371,23.9408284 97.7541371,23.2307692 C97.7541371,22.3431953 98.7163121,22.0769231 99.5035461,22.0769231 C100.20331,22.0769231 100.553191,22.2544379 100.990544,22.4319527 C100.815603,23.4970414 99.9408983,24.2071006 99.0661939,24.2071006 L99.0661939,24.2071006 Z M108.250591,18.3491124 L106.413712,23.1420118 L106.326241,23.1420118 L104.401891,18.3491124 L102.652482,18.3491124 L105.539007,25.0946746 L103.877069,28.8224852 L105.539007,28.8224852 L110,18.3491124 L108.250591,18.3491124 L108.250591,18.3491124 Z M93.5555556,25.4497041 L95.2174941,25.4497041 L95.2174941,14.3550296 L93.5555556,14.3550296 L93.5555556,25.4497041 Z" id="Shape" fill="#FFFFFF"></path>
                    <g id="Group" transform="translate(9.000000, 6.000000)">
                        <path d="M0.345945946,0.343466667 C0.0864864865,0.60632381 0,1.04441905 0,1.57013333 L0,20.9339429 C0,21.4596571 0.172972973,21.8977524 0.432432432,22.1606095 L0.518918919,22.2482286 L11.2432432,11.3834667 L11.2432432,11.2082286 L0.345945946,0.343466667 Z" id="Path" fill="url(#linearGradient-2)"></path>
                        <path d="M14.7027027,15.0634667 L11.1567568,11.4710857 L11.1567568,11.2082286 L14.7027027,7.61584762 L14.7891892,7.70346667 L19.027027,10.1568 C20.2378378,10.8577524 20.2378378,11.9968 19.027027,12.6977524 L14.7027027,15.0634667 L14.7027027,15.0634667 Z" id="Path" fill="url(#linearGradient-3)"></path>
                        <path d="M14.7891892,14.9758476 L11.1567568,11.2958476 L0.345945946,22.2482286 C0.778378378,22.6863238 1.38378378,22.6863238 2.16216216,22.3358476 L14.7891892,14.9758476" id="Path" fill="url(#linearGradient-4)"></path>
                        <path d="M14.7891892,7.61584762 L2.16216216,0.343466667 C1.38378378,-0.0946285714 0.778378378,-0.00700952381 0.345945946,0.431085714 L11.1567568,11.2958476 L14.7891892,7.61584762 L14.7891892,7.61584762 Z" id="Path" fill="url(#linearGradient-5)"></path>
                        <path d="M14.7027027,14.8882286 L2.16216216,22.0729905 C1.47027027,22.5110857 0.864864865,22.4234667 0.432432432,22.0729905 L0.345945946,22.1606095 L0.432432432,22.2482286 C0.864864865,22.5987048 1.47027027,22.6863238 2.16216216,22.2482286 L14.7027027,14.8882286 Z" id="Path" fill="#000000" opacity="0.2"></path>
                        <path d="M0.345945946,22.0729905 C0.0864864865,21.8101333 2.77555756e-17,21.3720381 2.77555756e-17,20.8463238 L2.77555756e-17,20.9339429 C2.77555756e-17,21.4596571 0.172972973,21.8977524 0.432432432,22.1606095 L0.432432432,22.0729905 L0.345945946,22.0729905 Z M19.027027,12.4348952 L14.7027027,14.8882286 L14.7891892,14.9758476 L19.027027,12.5225143 C19.6324324,12.1720381 19.8918919,11.7339429 19.8918919,11.2958476 C19.8918919,11.7339429 19.5459459,12.084419 19.027027,12.4348952 L19.027027,12.4348952 Z" id="Shape" fill="#000000" opacity="0.12"></path>
                        <path d="M2.16216216,0.431085714 L19.027027,10.1568 C19.5459459,10.5072762 19.8918919,10.8577524 19.8918919,11.2958476 C19.8918919,10.8577524 19.6324324,10.4196571 19.027027,10.069181 L2.16216216,0.343466667 C0.951351351,-0.357485714 0,0.168228571 0,1.57013333 L0,1.65775238 C0,0.343466667 0.951351351,-0.269866667 2.16216216,0.431085714 Z" id="Path" fill="#FFFFFF" opacity="0.25"></path>
                    </g>
                </g>
            </g>
        </g>
    </g>
</svg>