<?xml version="1.0" encoding="UTF-8"?>
<svg width="1440px" height="1024px" viewBox="0 0 1440 1024" version="1.1" xmlns="http://www.w3.org/2000/svg" xmlns:xlink="http://www.w3.org/1999/xlink">
    <title>Background</title>
    <g id="Page-1" stroke="none" stroke-width="1" fill="none" fill-rule="evenodd">
        <g id="WaitList-page-2">
            <g id="Background">
                <rect id="Rectangle" stroke="#979797" fill="#EDF1F7" x="0.5" y="0.5" width="1439" height="1023"></rect>
                <path d="M1439.95098,0.38523501 L1439.95098,792.868699 L357.274988,796.620664 C375.901372,776.289907 388.613134,760.953613 395.410274,750.611784 C466.666257,642.196007 608.605821,589.999993 645.857025,522.095775 C703.84774,416.386058 760.742464,266.114605 917.342008,206.362173 C964.742099,188.276101 1011.21176,137.102002 1056.75101,52.8398779 C1074.21588,20.524292 1107.99201,0.38523501 1144.72509,0.38523501 L1439.95098,0.38523501 L1439.95098,0.38523501 Z" id="Rectangle" fill="#F6F8F9" fill-rule="nonzero"></path>
                <path d="M437.842148,740.002993 C513.458961,710.224993 847.338906,709.223996 1439.48198,737 L1440,1024 L0,1024 C28.2112429,967.867401 90.8779095,930.550785 188,912.050151 C333.683136,884.299201 324.416928,784.669992 437.842148,740.002993 Z" id="Rectangle" fill="#C4D3D6" fill-rule="nonzero"></path>
            </g>
        </g>
    </g>
</svg>