<?xml version="1.0" encoding="UTF-8"?>
<svg width="500px" height="165px" viewBox="0 0 500 165" version="1.1" xmlns="http://www.w3.org/2000/svg" xmlns:xlink="http://www.w3.org/1999/xlink">
    <title>Group 9</title>
    <g id="Page-1" stroke="none" stroke-width="1" fill="none" fill-rule="evenodd">
        <g id="WaitList-page-2" transform="translate(-632.000000, -181.000000)" fill="#B4D7DD" fill-rule="nonzero">
            <g id="web-resolution">
                <g id="Group">
                    <g id="Group-9" transform="translate(882.000000, 263.500000) scale(-1, 1) translate(-882.000000, -263.500000) translate(632.000000, 181.000000)">
                        <path d="M12.8501854,87.8662162 C12.8501854,87.8662162 65.9871845,96.427216 86.2521841,87.8662162 C86.2521841,87.8662162 112.964184,64.3042166 82.4441842,55.1972167 C82.4441842,55.1972167 85.1321841,23.6132173 57.2441846,38.075217 C57.2441846,38.075217 19.7731852,6.47721754 12.8151854,55.1972167 C12.8501854,55.1692167 -16.0598141,70.7232164 12.8501854,87.8662162 Z" id="Path"></path>
                        <path d="M436.663635,154.131593 C436.663635,154.131593 476.623879,160.585509 491.863624,154.131593 C491.863624,154.131593 511.951662,136.36881 488.999921,129.503279 C488.999921,129.503279 491.021359,105.692918 470.048942,116.595446 C470.048942,116.595446 441.86989,92.7745307 436.637314,129.503279 C436.663635,129.48217 414.922651,141.207928 436.663635,154.131593 Z" id="Path-Copy-3" opacity="0.600000024"></path>
                        <path d="M136.663635,128.131593 C136.663635,128.131593 176.623879,134.585509 191.863624,128.131593 C191.863624,128.131593 211.951662,110.36881 188.999921,103.503279 C188.999921,103.503279 191.021359,79.6929179 170.048942,90.5954456 C170.048942,90.5954456 141.86989,66.7745307 136.637314,103.503279 C136.663635,103.48217 114.922651,115.207928 136.663635,128.131593 Z" id="Path-Copy" opacity="0.400000006"></path>
                        <path d="M248.850185,160.866216 C248.850185,160.866216 301.987184,169.427216 322.252184,160.866216 C322.252184,160.866216 348.964184,137.304217 318.444184,128.197217 C318.444184,128.197217 321.132184,96.6132173 293.244185,111.075217 C293.244185,111.075217 255.773185,79.4772175 248.815185,128.197217 C248.850185,128.169217 219.940186,143.723216 248.850185,160.866216 Z" id="Path" opacity="0.800000012"></path>
                        <path d="M195.252177,52.6535248 C195.252177,52.6535248 241.781229,60.183094 259.526138,52.6535248 C259.526138,52.6535248 282.916318,31.9302787 256.191689,23.9204917 C256.191689,23.9204917 258.545418,-3.85826246 234.125481,8.86135324 C234.125481,8.86135324 201.314255,-18.9297142 195.22153,23.9204917 C195.252177,23.8958651 169.937333,37.5759165 195.252177,52.6535248 Z" id="Path-Copy-2"></path>
                        <path d="M334.14139,73.269347 C334.14139,73.269347 336.31139,80.7243469 342.541389,80.7243469 L389.525389,80.7243469 C389.525389,80.7243469 401.565388,77.5113469 398.163389,65.8703471 C398.163389,65.8703471 396.140389,54.2223473 386.921389,58.4293473 C386.921389,58.4293473 387.516389,35.7493477 370.954389,49.4973474 C370.170389,50.1973474 349.765389,22.4983479 341.38639,58.5973473 C341.37239,58.5903473 329.31139,60.0183472 334.14139,73.269347 Z" id="Path" opacity="0.300000012"></path>
                    </g>
                </g>
            </g>
        </g>
    </g>
</svg>